<svg width="34" height="31" viewBox="0 0 34 31" fill="none" xmlns="http://www.w3.org/2000/svg">
<path d="M16.8768 30.2176C23.5314 30.2176 28.926 24.823 28.926 18.1684C28.926 11.5139 23.5314 6.11926 16.8768 6.11926C10.2222 6.11926 4.82764 11.5139 4.82764 18.1684C4.82764 24.823 10.2222 30.2176 16.8768 30.2176Z" fill="#FFB6B6"/>
<path d="M27.4284 9.33414C27.4284 9.33414 30.5799 3.30956 23.6466 2.76187C23.6466 2.76187 17.736 -2.59985 11.7114 1.78166C11.7114 1.78166 8.42527 1.78166 6.62829 5.50031C6.62829 5.50031 4.04375 4.52011 3.47578 7.14338C3.47578 7.14338 1.5846 12.6203 3.47578 17.5495C5.36696 22.4787 5.99513 23.0264 5.99513 23.0264C5.99513 23.0264 2.88753 12.692 10.4517 12.1443C18.0159 11.5966 26.4804 6.86954 27.1108 12.8941C27.7412 18.9187 28.6898 20.4031 28.6898 20.4031C28.6898 20.4031 34.6771 11.7988 27.4284 9.33414Z" fill="#2F2E41"/>
<path d="M31.4891 17.51H30.6073C30.6073 10.8437 24.0097 6.47526 17.3539 6.47173C16.3858 6.4689 15.4198 6.56284 14.4704 6.75214C13.4017 6.96554 12.2924 7.22126 11.2025 7.55458C6.90462 8.87198 2.91891 11.4186 2.91891 17.51C2.91799 18.693 3.06853 19.8713 3.36686 21.0161L2.51328 21.2383C2.19668 20.0208 2.03666 18.768 2.03711 17.51C2.03711 12.1875 4.2222 8.5316 7.99628 6.35181C9.98032 5.20547 12.4017 4.46653 15.1759 4.10676C16.3303 3.95318 17.4973 3.91773 18.6589 4.00095C26.3129 4.55118 31.4891 10.4204 31.4891 17.51Z" fill="#ED2590"/>
<path d="M32.9578 17.9985L32.6104 15.4308C32.5247 14.7823 32.2123 14.1851 31.7286 13.7448C31.418 13.4577 31.0463 13.2451 30.6414 13.1229C30.2366 13.0007 29.8093 12.9721 29.3918 13.0393L28.8398 13.1152C28.6888 13.1351 28.5432 13.1847 28.4115 13.2613C28.2798 13.3379 28.1646 13.4399 28.0726 13.5614C27.9799 13.6824 27.912 13.8206 27.873 13.968C27.8339 14.1155 27.8245 14.2691 27.8451 14.4202L28.6476 20.3353C28.6806 20.5764 28.7887 20.801 28.9564 20.9773C29.1242 21.1536 29.3431 21.2726 29.5823 21.3176C29.6531 21.3318 29.7252 21.3389 29.7974 21.3388C29.8493 21.3388 29.9012 21.3352 29.9526 21.3282L30.5699 21.2453C30.9462 21.1954 31.3084 21.069 31.6341 20.874C31.9598 20.679 32.2422 20.4195 32.464 20.1113C32.5116 20.0443 32.5574 19.9755 32.5998 19.905C32.9303 19.3279 33.0565 18.6562 32.9578 17.9985Z" fill="#ED2590"/>
<path d="M28.4835 13.2227C28.3216 13.3014 28.1808 13.4175 28.0726 13.5613C27.9799 13.6824 27.912 13.8206 27.873 13.968C27.8339 14.1154 27.8245 14.2691 27.8451 14.4202L28.6476 20.3353C28.6806 20.5764 28.7887 20.8009 28.9564 20.9772C29.1242 21.1535 29.3431 21.2726 29.5823 21.3176L28.4835 13.2227Z" fill="white"/>
<path d="M32.9578 17.9985L32.6103 15.4307C32.5246 14.7823 32.2123 14.185 31.7285 13.7448L32.5274 19.6299C32.5394 19.7243 32.5637 19.8168 32.5997 19.905C32.9303 19.3279 33.0564 18.6562 32.9578 17.9985Z" fill="#3F3D56"/>
<path d="M30.2121 19.8486C30.4534 19.8159 30.5747 19.2417 30.4831 18.5661C30.3914 17.8905 30.1215 17.3693 29.8802 17.402C29.639 17.4348 29.5177 18.009 29.6093 18.6846C29.701 19.3602 29.9709 19.8814 30.2121 19.8486Z" fill="#3F3D56"/>
<path d="M29.6829 16.6742C29.9242 16.6415 30.0455 16.0673 29.9538 15.3916C29.8622 14.716 29.5923 14.1949 29.351 14.2276C29.1097 14.2603 28.9884 14.8346 29.08 15.5102C29.1717 16.1858 29.4416 16.7069 29.6829 16.6742Z" fill="#3F3D56"/>
<path d="M33.0339 17.9087C33.2752 17.876 33.3965 17.3018 33.3049 16.6261C33.2132 15.9505 32.9433 15.4294 32.702 15.4621C32.4607 15.4948 32.3394 16.0691 32.4311 16.7447C32.5227 17.4203 32.7926 17.9414 33.0339 17.9087Z" fill="#3F3D56"/>
<path d="M17.3537 6.47173C16.3856 6.4689 15.4197 6.56283 14.4702 6.75214C13.4015 6.96553 12.2922 7.22125 11.2023 7.55457C9.50044 7.47168 8.24829 7.03078 7.99609 6.3518C9.98014 5.20547 12.4015 4.46653 15.1757 4.10676C16.3301 3.95318 17.4972 3.91773 18.6588 4.00095C18.7817 4.07303 18.8881 4.17033 18.9707 4.28644C19.0534 4.40255 19.1106 4.53485 19.1385 4.67463C19.2214 5.28837 18.5212 5.94089 17.3537 6.47173Z" fill="#3F3D56"/>
<path d="M6.09497 23.6297L4.73701 17.9845C4.68858 17.7808 4.58106 17.596 4.42794 17.4532C4.27482 17.3104 4.08294 17.2161 3.87638 17.182C3.81802 17.1729 3.75907 17.1682 3.70002 17.1679C3.61683 17.1682 3.53396 17.1783 3.45311 17.1979L2.92757 17.3249C2.25091 17.4885 1.66681 17.9139 1.30344 18.5077C0.940076 19.1016 0.827133 19.8153 0.989388 20.4923L1.59782 23.0248C1.73674 23.621 2.06761 24.1551 2.53958 24.545C2.61606 24.6068 2.69615 24.6639 2.77943 24.7161C3.07504 24.9014 3.40479 25.0255 3.74918 25.0813C4.09358 25.137 4.44566 25.1232 4.78462 25.0406L5.30841 24.9136C5.44691 24.8813 5.5772 24.8206 5.6911 24.7355C5.86048 24.612 5.98932 24.4409 6.06123 24.244C6.13315 24.0471 6.14489 23.8333 6.09497 23.6297Z" fill="#ED2590"/>
<path d="M3.24803 22.5793C3.48477 22.5224 3.54737 21.9388 3.38786 21.2759C3.22834 20.613 2.90711 20.1219 2.67036 20.1788C2.43362 20.2358 2.37101 20.8194 2.53053 21.4822C2.69005 22.1451 3.01128 22.6363 3.24803 22.5793Z" fill="#3F3D56"/>
<path d="M1.48435 23.1084C1.7211 23.0514 1.7837 22.4679 1.62419 21.805C1.46467 21.1421 1.14343 20.6509 0.90669 20.7079C0.669946 20.7649 0.607342 21.3484 0.766859 22.0113C0.926377 22.6742 1.24761 23.1654 1.48435 23.1084Z" fill="#3F3D56"/>
<path d="M6.18152 23.6085L4.82356 17.9633C4.77065 17.7429 4.65392 17.543 4.48797 17.3887C4.32203 17.2344 4.11424 17.1324 3.89062 17.0956L5.74416 24.806C5.92721 24.6719 6.06644 24.4867 6.14428 24.2735C6.22212 24.0604 6.23508 23.829 6.18152 23.6085Z" fill="white"/>
<path d="M1.2962 19.3742C1.25872 19.2172 1.1884 19.0699 1.08986 18.9421C0.898965 19.4364 0.863891 19.9774 0.989337 20.4923L1.59777 23.0248C1.73669 23.621 2.06756 24.1551 2.53953 24.545L1.2962 19.3742Z" fill="#3F3D56"/>
</svg>
